<svg width="396" height="288" viewBox="0 0 396 288" fill="none" xmlns="http://www.w3.org/2000/svg">
<path d="M75.4305 121.239C44.2246 119.075 1.9917 152.998 1.9917 152.998V264.156H393.339V121.239C393.339 121.239 363.266 141.152 342.748 137.767C309.997 132.364 328.519 76.2901 296.726 66.7947C273.697 59.9169 258.742 87.4741 236.343 78.7855C213.805 70.0429 221.482 40.1498 200.113 28.8781C151.785 3.38568 191.507 154.062 136.793 152.998C109.774 152.473 102.389 123.109 75.4305 121.239Z" fill="url(#paint0_linear_70_631)"/>
<path d="M1.9917 152.998C1.9917 152.998 44.2246 119.075 75.4305 121.239C102.389 123.109 109.774 152.473 136.793 152.998C191.507 154.062 151.785 3.38568 200.113 28.8781C221.482 40.1498 213.805 70.0429 236.343 78.7855C258.742 87.4741 273.697 59.9169 296.726 66.7947C328.519 76.2901 309.997 132.364 342.748 137.767C363.265 141.152 393.339 121.239 393.339 121.239" stroke="url(#paint1_linear_70_631)" stroke-width="3.33056" stroke-linecap="round"/>
<path d="M1.66528 83.3226C1.66528 83.3226 34.2726 106.868 56.4996 105.036C84.2679 102.746 85.7747 63.6286 113.619 62.5818C146.694 61.3384 146.243 125.417 178.245 117.026C196.218 112.314 195.724 90.6814 213.495 85.267C244.301 75.8813 252.693 130.86 284.649 126.748C311.047 123.352 310.75 83.0604 337.199 80.0818C359.836 77.5326 367.554 92.7207 393.665 99.8504" stroke="url(#paint2_linear_70_631)" stroke-width="3.33056" stroke-linecap="round"/>
<path opacity="0.5" d="M24.062 284.878V276.423H25.2866L28.1812 283.478H28.2749L31.1694 276.423H32.394V284.878H31.4097V278.421H30.894L32.0776 276.657L28.6733 284.878H27.7827L24.3843 276.657L25.562 278.421H25.0464V284.878H24.062ZM37.0171 284.989C36.4194 284.989 35.9019 284.858 35.4644 284.597C35.0308 284.331 34.6948 283.954 34.4565 283.466C34.2222 282.978 34.105 282.397 34.105 281.726V281.714C34.105 281.038 34.2222 280.456 34.4565 279.968C34.6948 279.479 35.0308 279.104 35.4644 278.843C35.9019 278.581 36.4194 278.45 37.0171 278.45C37.6187 278.45 38.1362 278.581 38.5698 278.843C39.0034 279.104 39.3374 279.479 39.5718 279.968C39.8101 280.456 39.9292 281.038 39.9292 281.714V281.726C39.9292 282.397 39.8101 282.978 39.5718 283.466C39.3374 283.954 39.0034 284.331 38.5698 284.597C38.1362 284.858 37.6187 284.989 37.0171 284.989ZM37.0171 284.087C37.4155 284.087 37.7534 283.993 38.0308 283.806C38.3081 283.618 38.519 283.349 38.6636 282.997C38.812 282.646 38.8862 282.222 38.8862 281.726V281.714C38.8862 281.214 38.812 280.788 38.6636 280.437C38.519 280.085 38.3081 279.817 38.0308 279.634C37.7534 279.446 37.4155 279.353 37.0171 279.353C36.6187 279.353 36.2808 279.446 36.0034 279.634C35.7261 279.817 35.5132 280.085 35.3647 280.437C35.2202 280.788 35.1479 281.214 35.1479 281.714V281.726C35.1479 282.222 35.2202 282.646 35.3647 282.997C35.5132 283.349 35.7261 283.618 36.0034 283.806C36.2808 283.993 36.6187 284.087 37.0171 284.087ZM41.5112 284.878V278.562H42.5308V279.511H42.6245C42.7847 279.175 43.0151 278.915 43.3159 278.731C43.6167 278.544 43.9995 278.45 44.4644 278.45C45.1753 278.45 45.7202 278.653 46.0991 279.06C46.4819 279.462 46.6733 280.038 46.6733 280.788V284.878H45.6538V281.034C45.6538 280.464 45.5327 280.042 45.2905 279.769C45.0522 279.491 44.6812 279.353 44.1772 279.353C43.8413 279.353 43.5503 279.425 43.3042 279.569C43.0581 279.714 42.8667 279.919 42.73 280.185C42.5972 280.45 42.5308 280.769 42.5308 281.14V284.878H41.5112Z" fill="#494949"/>
<path opacity="0.5" d="M246.227 284.878V276.423H251.36V277.372H247.282V280.278H251.026V281.216H247.282V284.878H246.227ZM252.965 284.878V278.562H253.985V279.499H254.079C254.2 279.167 254.405 278.909 254.694 278.726C254.983 278.542 255.34 278.45 255.766 278.45C255.864 278.45 255.959 278.456 256.053 278.468C256.151 278.476 256.225 278.483 256.276 278.491V279.481C256.17 279.462 256.067 279.448 255.965 279.44C255.868 279.429 255.762 279.423 255.649 279.423C255.325 279.423 255.038 279.487 254.788 279.616C254.538 279.745 254.34 279.925 254.196 280.155C254.055 280.386 253.985 280.655 253.985 280.964V284.878H252.965ZM257.559 284.878V278.562H258.579V284.878H257.559ZM258.075 277.343C257.883 277.343 257.717 277.274 257.577 277.138C257.44 276.997 257.372 276.831 257.372 276.64C257.372 276.444 257.44 276.278 257.577 276.142C257.717 276.005 257.883 275.937 258.075 275.937C258.27 275.937 258.436 276.005 258.573 276.142C258.709 276.278 258.778 276.444 258.778 276.64C258.778 276.831 258.709 276.997 258.573 277.138C258.436 277.274 258.27 277.343 258.075 277.343Z" fill="#494949"/>
<path opacity="0.5" d="M81.7861 284.878V277.372H79.0615V276.423H85.5654V277.372H82.8408V284.878H81.7861ZM88.3018 284.989C87.8252 284.989 87.4248 284.899 87.1006 284.72C86.7764 284.536 86.5322 284.271 86.3682 283.923C86.208 283.571 86.1279 283.147 86.1279 282.651V278.562H87.1475V282.405C87.1475 282.972 87.2568 283.394 87.4756 283.671C87.6982 283.948 88.0615 284.087 88.5654 284.087C88.8428 284.087 89.0869 284.046 89.2979 283.964C89.5127 283.882 89.6924 283.765 89.8369 283.612C89.9814 283.456 90.0889 283.269 90.1592 283.05C90.2334 282.827 90.2705 282.577 90.2705 282.3V278.562H91.29V284.878H90.2705V283.935H90.1768C90.0752 284.157 89.9365 284.349 89.7607 284.509C89.585 284.665 89.374 284.784 89.1279 284.866C88.8857 284.948 88.6104 284.989 88.3018 284.989ZM95.7725 284.989C95.1709 284.989 94.6533 284.856 94.2197 284.591C93.79 284.325 93.458 283.95 93.2236 283.466C92.9932 282.978 92.8779 282.403 92.8779 281.743V281.737C92.8779 281.085 92.9932 280.513 93.2236 280.021C93.458 279.528 93.7881 279.144 94.2139 278.866C94.6396 278.589 95.1377 278.45 95.708 278.45C96.2822 278.45 96.7744 278.583 97.1846 278.849C97.5986 279.114 97.915 279.485 98.1338 279.962C98.3564 280.435 98.4678 280.985 98.4678 281.614V282.013H93.4053V281.198H97.9463L97.4424 281.942V281.538C97.4424 281.042 97.3682 280.634 97.2197 280.313C97.0713 279.993 96.8662 279.755 96.6045 279.599C96.3428 279.438 96.042 279.358 95.7021 279.358C95.3623 279.358 95.0576 279.442 94.7881 279.61C94.5225 279.774 94.3115 280.019 94.1553 280.343C93.999 280.667 93.9209 281.065 93.9209 281.538V281.942C93.9209 282.392 93.9971 282.776 94.1494 283.097C94.3018 283.413 94.5186 283.657 94.7998 283.829C95.0811 283.997 95.4131 284.081 95.7959 284.081C96.0811 284.081 96.3291 284.042 96.54 283.964C96.751 283.886 96.9248 283.786 97.0615 283.665C97.1982 283.544 97.2939 283.421 97.3486 283.296L97.3721 283.243H98.3916L98.3799 283.29C98.3252 283.505 98.2275 283.714 98.0869 283.917C97.9502 284.116 97.7725 284.298 97.5537 284.462C97.335 284.622 97.0752 284.751 96.7744 284.849C96.4775 284.942 96.1436 284.989 95.7725 284.989Z" fill="#494949"/>
<path opacity="0.5" d="M133.69 284.878L131.387 276.423H132.489L134.171 283.296H134.241L136.134 276.423H137.2L139.093 283.296H139.163L140.844 276.423H141.946L139.643 284.878H138.647L136.702 278.204H136.632L134.686 284.878H133.69ZM145.415 284.989C144.813 284.989 144.296 284.856 143.862 284.591C143.432 284.325 143.1 283.95 142.866 283.466C142.635 282.978 142.52 282.403 142.52 281.743V281.737C142.52 281.085 142.635 280.513 142.866 280.021C143.1 279.528 143.43 279.144 143.856 278.866C144.282 278.589 144.78 278.45 145.35 278.45C145.925 278.45 146.417 278.583 146.827 278.849C147.241 279.114 147.557 279.485 147.776 279.962C147.999 280.435 148.11 280.985 148.11 281.614V282.013H143.048V281.198H147.589L147.085 281.942V281.538C147.085 281.042 147.01 280.634 146.862 280.313C146.714 279.993 146.509 279.755 146.247 279.599C145.985 279.438 145.684 279.358 145.344 279.358C145.005 279.358 144.7 279.442 144.43 279.61C144.165 279.774 143.954 280.019 143.798 280.343C143.641 280.667 143.563 281.065 143.563 281.538V281.942C143.563 282.392 143.639 282.776 143.792 283.097C143.944 283.413 144.161 283.657 144.442 283.829C144.723 283.997 145.055 284.081 145.438 284.081C145.723 284.081 145.971 284.042 146.182 283.964C146.393 283.886 146.567 283.786 146.704 283.665C146.841 283.544 146.936 283.421 146.991 283.296L147.014 283.243H148.034L148.022 283.29C147.968 283.505 147.87 283.714 147.729 283.917C147.593 284.116 147.415 284.298 147.196 284.462C146.977 284.622 146.718 284.751 146.417 284.849C146.12 284.942 145.786 284.989 145.415 284.989ZM152.024 284.989C151.493 284.989 151.028 284.854 150.63 284.585C150.231 284.315 149.923 283.937 149.704 283.448C149.485 282.956 149.376 282.382 149.376 281.726V281.714C149.376 281.054 149.485 280.479 149.704 279.991C149.923 279.503 150.229 279.124 150.624 278.854C151.022 278.585 151.489 278.45 152.024 278.45C152.313 278.45 152.585 278.497 152.839 278.591C153.096 278.681 153.325 278.808 153.524 278.972C153.723 279.136 153.88 279.331 153.993 279.558H154.087V276.054H155.106V284.878H154.087V283.87H153.993C153.864 284.104 153.702 284.306 153.507 284.474C153.311 284.638 153.089 284.765 152.839 284.854C152.589 284.944 152.317 284.989 152.024 284.989ZM152.259 284.087C152.641 284.087 152.971 283.991 153.249 283.8C153.526 283.608 153.739 283.337 153.887 282.985C154.036 282.63 154.11 282.21 154.11 281.726V281.714C154.11 281.226 154.036 280.806 153.887 280.454C153.739 280.103 153.526 279.831 153.249 279.64C152.971 279.448 152.641 279.353 152.259 279.353C151.876 279.353 151.546 279.448 151.268 279.64C150.995 279.827 150.784 280.097 150.635 280.448C150.491 280.8 150.419 281.222 150.419 281.714V281.726C150.419 282.214 150.491 282.636 150.635 282.991C150.784 283.343 150.995 283.614 151.268 283.806C151.546 283.993 151.876 284.087 152.259 284.087Z" fill="#494949"/>
<path opacity="0.5" d="M301.37 285.077C300.753 285.077 300.214 284.978 299.753 284.778C299.296 284.575 298.933 284.298 298.663 283.946C298.398 283.591 298.243 283.185 298.2 282.728L298.195 282.663H299.249L299.255 282.728C299.282 283.009 299.39 283.253 299.577 283.46C299.769 283.663 300.023 283.821 300.339 283.935C300.659 284.048 301.023 284.104 301.429 284.104C301.812 284.104 302.152 284.044 302.448 283.923C302.749 283.798 302.986 283.626 303.157 283.407C303.329 283.188 303.415 282.937 303.415 282.651V282.646C303.415 282.294 303.286 281.999 303.029 281.761C302.771 281.519 302.351 281.333 301.769 281.204L300.831 280.999C299.984 280.812 299.366 280.522 298.98 280.132C298.597 279.737 298.406 279.233 298.406 278.62V278.614C298.409 278.146 298.536 277.731 298.786 277.372C299.04 277.013 299.39 276.731 299.835 276.528C300.284 276.325 300.8 276.224 301.382 276.224C301.945 276.224 302.443 276.325 302.876 276.528C303.31 276.728 303.654 276.997 303.907 277.337C304.165 277.677 304.308 278.058 304.335 278.479L304.341 278.562H303.286L303.275 278.485C303.236 278.235 303.134 278.015 302.97 277.823C302.806 277.628 302.587 277.474 302.314 277.36C302.04 277.247 301.72 277.192 301.353 277.196C301.001 277.196 300.685 277.251 300.404 277.36C300.122 277.47 299.898 277.628 299.73 277.835C299.566 278.038 299.484 278.288 299.484 278.585V278.591C299.484 278.927 299.609 279.21 299.859 279.44C300.109 279.671 300.521 279.849 301.095 279.974L302.032 280.185C302.622 280.313 303.097 280.481 303.456 280.688C303.816 280.896 304.077 281.149 304.241 281.45C304.409 281.747 304.493 282.099 304.493 282.505V282.511C304.493 283.038 304.365 283.493 304.107 283.876C303.849 284.259 303.486 284.556 303.017 284.767C302.548 284.974 301.999 285.077 301.37 285.077ZM307.857 284.989C307.458 284.989 307.099 284.913 306.779 284.761C306.462 284.608 306.21 284.392 306.023 284.11C305.839 283.829 305.747 283.497 305.747 283.114V283.103C305.747 282.728 305.837 282.407 306.017 282.142C306.197 281.872 306.458 281.661 306.802 281.509C307.146 281.356 307.562 281.267 308.05 281.239L310.37 281.099V281.913L308.173 282.054C307.693 282.081 307.341 282.181 307.118 282.353C306.9 282.524 306.79 282.767 306.79 283.079V283.091C306.79 283.411 306.911 283.661 307.154 283.841C307.396 284.017 307.7 284.104 308.068 284.104C308.415 284.104 308.724 284.036 308.993 283.899C309.263 283.759 309.474 283.569 309.626 283.331C309.782 283.093 309.861 282.823 309.861 282.522V280.554C309.861 280.163 309.741 279.866 309.503 279.663C309.269 279.456 308.915 279.353 308.443 279.353C308.064 279.353 307.753 279.421 307.511 279.558C307.269 279.69 307.107 279.88 307.025 280.126L307.019 280.144H305.999L306.005 280.108C306.06 279.776 306.197 279.487 306.415 279.241C306.638 278.991 306.925 278.798 307.277 278.661C307.628 278.521 308.029 278.45 308.478 278.45C308.993 278.45 309.429 278.534 309.784 278.702C310.144 278.87 310.415 279.112 310.599 279.429C310.786 279.741 310.88 280.116 310.88 280.554V284.878H309.861V283.946H309.767C309.634 284.169 309.472 284.358 309.281 284.515C309.093 284.671 308.88 284.79 308.642 284.872C308.404 284.95 308.142 284.989 307.857 284.989ZM314.988 284.925C314.339 284.925 313.868 284.794 313.575 284.532C313.286 284.271 313.142 283.839 313.142 283.237V279.405H312.146V278.562H313.142V276.927H314.197V278.562H315.579V279.405H314.197V282.979C314.197 283.351 314.267 283.618 314.407 283.782C314.548 283.942 314.782 284.022 315.111 284.022C315.2 284.022 315.277 284.021 315.339 284.017C315.406 284.013 315.486 284.007 315.579 283.999V284.866C315.482 284.882 315.384 284.896 315.286 284.907C315.189 284.919 315.089 284.925 314.988 284.925Z" fill="#494949"/>
<path d="M190.976 284.878V277.372H188.251V276.423H194.755V277.372H192.03V284.878H190.976ZM196.313 284.878V276.054H197.333V279.511H197.427C197.587 279.175 197.817 278.915 198.118 278.731C198.419 278.544 198.802 278.45 199.267 278.45C199.739 278.45 200.14 278.542 200.468 278.726C200.796 278.905 201.046 279.169 201.218 279.517C201.39 279.864 201.476 280.288 201.476 280.788V284.878H200.456V281.034C200.456 280.464 200.335 280.042 200.093 279.769C199.854 279.491 199.483 279.353 198.979 279.353C198.644 279.353 198.353 279.425 198.106 279.569C197.86 279.714 197.669 279.919 197.532 280.185C197.399 280.45 197.333 280.769 197.333 281.14V284.878H196.313ZM203.321 284.878V278.562H204.341V279.499H204.435C204.556 279.167 204.761 278.909 205.05 278.726C205.339 278.542 205.696 278.45 206.122 278.45C206.22 278.45 206.315 278.456 206.409 278.468C206.507 278.476 206.581 278.483 206.632 278.491V279.481C206.526 279.462 206.423 279.448 206.321 279.44C206.224 279.429 206.118 279.423 206.005 279.423C205.681 279.423 205.394 279.487 205.144 279.616C204.894 279.745 204.696 279.925 204.552 280.155C204.411 280.386 204.341 280.655 204.341 280.964V284.878H203.321Z" fill="#494949"/>
<path opacity="0.5" d="M352.534 285.077C351.917 285.077 351.378 284.978 350.917 284.778C350.46 284.575 350.097 284.298 349.827 283.946C349.562 283.591 349.407 283.185 349.365 282.728L349.359 282.663H350.413L350.419 282.728C350.447 283.009 350.554 283.253 350.741 283.46C350.933 283.663 351.187 283.821 351.503 283.935C351.823 284.048 352.187 284.104 352.593 284.104C352.976 284.104 353.316 284.044 353.613 283.923C353.913 283.798 354.15 283.626 354.322 283.407C354.493 283.188 354.579 282.937 354.579 282.651V282.646C354.579 282.294 354.45 281.999 354.193 281.761C353.935 281.519 353.515 281.333 352.933 281.204L351.995 280.999C351.148 280.812 350.531 280.522 350.144 280.132C349.761 279.737 349.57 279.233 349.57 278.62V278.614C349.573 278.146 349.7 277.731 349.95 277.372C350.204 277.013 350.554 276.731 350.999 276.528C351.448 276.325 351.964 276.224 352.546 276.224C353.109 276.224 353.607 276.325 354.04 276.528C354.474 276.728 354.818 276.997 355.072 277.337C355.329 277.677 355.472 278.058 355.499 278.479L355.505 278.562H354.45L354.439 278.485C354.4 278.235 354.298 278.015 354.134 277.823C353.97 277.628 353.751 277.474 353.478 277.36C353.204 277.247 352.884 277.192 352.517 277.196C352.165 277.196 351.849 277.251 351.568 277.36C351.286 277.47 351.062 277.628 350.894 277.835C350.73 278.038 350.648 278.288 350.648 278.585V278.591C350.648 278.927 350.773 279.21 351.023 279.44C351.273 279.671 351.685 279.849 352.259 279.974L353.197 280.185C353.786 280.313 354.261 280.481 354.62 280.688C354.98 280.896 355.241 281.149 355.406 281.45C355.573 281.747 355.657 282.099 355.657 282.505V282.511C355.657 283.038 355.529 283.493 355.271 283.876C355.013 284.259 354.65 284.556 354.181 284.767C353.712 284.974 353.163 285.077 352.534 285.077ZM359.402 284.989C358.925 284.989 358.525 284.899 358.2 284.72C357.876 284.536 357.632 284.271 357.468 283.923C357.308 283.571 357.228 283.147 357.228 282.651V278.562H358.247V282.405C358.247 282.972 358.357 283.394 358.575 283.671C358.798 283.948 359.161 284.087 359.665 284.087C359.943 284.087 360.187 284.046 360.398 283.964C360.613 283.882 360.792 283.765 360.937 283.612C361.081 283.456 361.189 283.269 361.259 283.05C361.333 282.827 361.37 282.577 361.37 282.3V278.562H362.39V284.878H361.37V283.935H361.277C361.175 284.157 361.036 284.349 360.861 284.509C360.685 284.665 360.474 284.784 360.228 284.866C359.986 284.948 359.71 284.989 359.402 284.989ZM364.294 284.878V278.562H365.314V279.511H365.407C365.568 279.175 365.798 278.915 366.099 278.731C366.4 278.544 366.782 278.45 367.247 278.45C367.958 278.45 368.503 278.653 368.882 279.06C369.265 279.462 369.456 280.038 369.456 280.788V284.878H368.437V281.034C368.437 280.464 368.316 280.042 368.073 279.769C367.835 279.491 367.464 279.353 366.96 279.353C366.624 279.353 366.333 279.425 366.087 279.569C365.841 279.714 365.65 279.919 365.513 280.185C365.38 280.45 365.314 280.769 365.314 281.14V284.878H364.294Z" fill="#494949"/>
<path opacity="0.3" d="M35.2839 262.211V2.95215" stroke="#494949" stroke-width="0.666112" stroke-linecap="round" stroke-dasharray="0 0.67 9.33 0 0.67 9.33"/>
<path opacity="0.3" d="M89.1392 262.211V2.95215" stroke="#494949" stroke-width="0.666112" stroke-linecap="round" stroke-dasharray="0 0.67 9.33 0 0.67 9.33"/>
<path opacity="0.3" d="M142.994 262.211V2.95215" stroke="#494949" stroke-width="0.666112" stroke-linecap="round" stroke-dasharray="0 0.67 9.33 0 0.67 9.33"/>
<path opacity="0.3" d="M196.849 264.156V4.89648" stroke="#494949" stroke-width="0.666112" stroke-linecap="round" stroke-dasharray="0 0.67 9.33 0 0.67 9.33"/>
<path opacity="0.3" d="M250.704 264.156V4.89648" stroke="#494949" stroke-width="0.666112" stroke-linecap="round" stroke-dasharray="0 0.67 9.33 0 0.67 9.33"/>
<path opacity="0.3" d="M304.56 264.156V4.89648" stroke="#494949" stroke-width="0.666112" stroke-linecap="round" stroke-dasharray="0 0.67 9.33 0 0.67 9.33"/>
<path opacity="0.3" d="M358.415 264.156V4.89648" stroke="#494949" stroke-width="0.666112" stroke-linecap="round" stroke-dasharray="0 0.67 9.33 0 0.67 9.33"/>
<g filter="url(#filter0_d_70_631)">
<ellipse cx="196.849" cy="26.2852" rx="13.0558" ry="12.963" fill="url(#paint3_linear_70_631)"/>
<path d="M196.849 15.9863C202.606 15.9863 207.241 20.6154 207.241 26.2852C207.241 31.955 202.606 36.584 196.849 36.584C191.092 36.5839 186.458 31.9549 186.458 26.2852C186.458 20.6154 191.092 15.9864 196.849 15.9863Z" stroke="white" stroke-width="5.32889"/>
</g>
<defs>
<filter id="filter0_d_70_631" x="167.141" y="3.33786e-05" width="59.4172" height="59.2314" filterUnits="userSpaceOnUse" color-interpolation-filters="sRGB">
<feFlood flood-opacity="0" result="BackgroundImageFix"/>
<feColorMatrix in="SourceAlpha" type="matrix" values="0 0 0 0 0 0 0 0 0 0 0 0 0 0 0 0 0 0 127 0" result="hardAlpha"/>
<feOffset dy="3.33056"/>
<feGaussianBlur stdDeviation="8.3264"/>
<feColorMatrix type="matrix" values="0 0 0 0 0 0 0 0 0 0 0 0 0 0 0 0 0 0 0.1 0"/>
<feBlend mode="normal" in2="BackgroundImageFix" result="effect1_dropShadow_70_631"/>
<feBlend mode="normal" in="SourceGraphic" in2="effect1_dropShadow_70_631" result="shape"/>
</filter>
<linearGradient id="paint0_linear_70_631" x1="197.665" y1="25.9727" x2="197.665" y2="264.156" gradientUnits="userSpaceOnUse">
<stop stop-color="#C9A392" stop-opacity="0.3"/>
<stop offset="1" stop-color="#795E56" stop-opacity="0"/>
</linearGradient>
<linearGradient id="paint1_linear_70_631" x1="197.665" y1="25.9727" x2="197.665" y2="153.004" gradientUnits="userSpaceOnUse">
<stop stop-color="#B8672E"/>
<stop offset="1" stop-color="#947458"/>
</linearGradient>
<linearGradient id="paint2_linear_70_631" x1="197.665" y1="62.564" x2="197.665" y2="126.969" gradientUnits="userSpaceOnUse">
<stop stop-color="#FF7133"/>
<stop offset="1" stop-color="#F6AD79"/>
</linearGradient>
<linearGradient id="paint3_linear_70_631" x1="196.849" y1="13.3223" x2="196.849" y2="39.2482" gradientUnits="userSpaceOnUse">
<stop stop-color="#FF9364"/>
<stop offset="1" stop-color="#F25F33"/>
</linearGradient>
</defs>
</svg>
