<svg width="48" height="48" viewBox="0 0 48 48" fill="none" xmlns="http://www.w3.org/2000/svg">
<path d="M29.25 22C31.0449 22 32.5 20.5449 32.5 18.75C32.5 16.9551 31.0449 15.5 29.25 15.5C27.4551 15.5 26 16.9551 26 18.75C26 20.5449 27.4551 22 29.25 22Z" stroke="#B8672E" stroke-width="2"/>
<path d="M29.25 32.5C31.0449 32.5 32.5 31.0449 32.5 29.25C32.5 27.4551 31.0449 26 29.25 26C27.4551 26 26 27.4551 26 29.25C26 31.0449 27.4551 32.5 29.25 32.5Z" stroke="#B8672E" stroke-width="2"/>
<path d="M18.75 22C20.5449 22 22 20.5449 22 18.75C22 16.9551 20.5449 15.5 18.75 15.5C16.9551 15.5 15.5 16.9551 15.5 18.75C15.5 20.5449 16.9551 22 18.75 22Z" stroke="#B8672E" stroke-width="2"/>
<path d="M18.75 32.5C20.5449 32.5 22 31.0449 22 29.25C22 27.4551 20.5449 26 18.75 26C16.9551 26 15.5 27.4551 15.5 29.25C15.5 31.0449 16.9551 32.5 18.75 32.5Z" stroke="#B8672E" stroke-width="2"/>
</svg>
