<svg width="280" height="280" viewBox="0 0 280 280" fill="none" xmlns="http://www.w3.org/2000/svg">
<path d="M259.512 140C259.512 206.005 206.005 259.512 140 259.512C73.9952 259.512 20.4878 206.005 20.4878 140C20.4878 73.9952 73.9952 20.4878 140 20.4878C206.005 20.4878 259.512 73.9952 259.512 140ZM30.7658 140C30.7658 200.328 79.6716 249.234 140 249.234C200.328 249.234 249.234 200.328 249.234 140C249.234 79.6716 200.328 30.7658 140 30.7658C79.6716 30.7658 30.7658 79.6716 30.7658 140Z" fill="#FAFAFA"/>
<path d="M140 20.4878C162.305 20.4878 184.166 26.73 203.108 38.5083C222.05 50.2866 237.318 67.1309 247.184 87.1355C257.051 107.14 261.122 129.507 258.938 151.705C256.753 173.903 248.4 195.047 234.823 212.744C221.246 230.442 202.988 243.987 182.113 251.847C161.238 259.706 138.58 261.568 116.703 257.219C94.8252 252.871 74.6011 242.487 58.3183 227.243C42.0356 211.998 30.3441 192.5 24.5665 170.956L34.4938 168.294C39.7745 187.985 50.4606 205.806 65.343 219.74C80.2254 233.674 98.7102 243.164 118.706 247.139C138.702 251.113 159.412 249.412 178.491 242.228C197.571 235.044 214.259 222.664 226.668 206.488C239.077 190.313 246.712 170.987 248.709 150.698C250.706 130.409 246.985 109.966 237.967 91.6818C228.949 73.3976 214.994 58.002 197.681 47.2366C180.367 36.4713 160.387 30.7658 140 30.7658V20.4878Z" fill="#A88775"/>
<path d="M280 140C280 217.32 217.32 280 140 280C62.6801 280 0 217.32 0 140C0 62.6801 62.6801 0 140 0C217.32 0 280 62.6801 280 140ZM12.04 140C12.04 210.67 69.3296 267.96 140 267.96C210.67 267.96 267.96 210.67 267.96 140C267.96 69.3296 210.67 12.04 140 12.04C69.3296 12.04 12.04 69.3296 12.04 140Z" fill="#FAFAFA"/>
<path d="M140 0C167.689 3.30193e-07 194.757 8.21086 217.78 23.5943C240.803 38.9777 258.747 60.8427 269.343 86.4243C279.939 112.006 282.712 140.155 277.31 167.313C271.908 194.47 258.574 219.416 238.995 238.995C219.416 258.574 194.47 271.908 167.313 277.31C140.155 282.712 112.006 279.939 86.4243 269.343C60.8427 258.747 38.9776 240.803 23.5943 217.78C8.21086 194.757 -6.60385e-07 167.689 0 140H12.04C12.04 165.308 19.5447 190.048 33.6051 211.091C47.6656 232.134 67.6502 248.535 91.0318 258.22C114.413 267.905 140.142 270.439 164.964 265.501C189.786 260.564 212.586 248.377 230.481 230.481C248.377 212.586 260.564 189.786 265.501 164.964C270.439 140.142 267.905 114.413 258.22 91.0318C248.535 67.6502 232.134 47.6656 211.091 33.6051C190.048 19.5447 165.308 12.04 140 12.04V0Z" fill="#8E6244"/>
<path d="M239.024 140C239.024 194.69 194.69 239.024 140 239.024C85.3103 239.024 40.9756 194.69 40.9756 140C40.9756 85.3103 85.3103 40.9756 140 40.9756C194.69 40.9756 239.024 85.3103 239.024 140ZM51.1751 140C51.1751 189.057 90.9433 228.825 140 228.825C189.057 228.825 228.825 189.057 228.825 140C228.825 90.9433 189.057 51.1751 140 51.1751C90.9433 51.1751 51.1751 90.9433 51.1751 140Z" fill="#FAFAFA"/>
<path d="M140 40.9756C155.189 40.9756 170.175 44.4697 183.797 51.1877C197.42 57.9057 209.315 67.6674 218.561 79.7178C227.808 91.7681 234.158 105.784 237.122 120.681C240.085 135.579 239.581 150.958 235.65 165.629C231.719 180.301 224.465 193.872 214.45 205.291C204.436 216.711 191.928 225.674 177.895 231.487C163.862 237.299 148.68 239.806 133.523 238.812C118.367 237.819 103.642 233.352 90.4878 225.758L95.5875 216.925C107.387 223.737 120.595 227.744 134.191 228.635C147.786 229.526 161.404 227.277 173.992 222.063C186.579 216.85 197.799 208.81 206.782 198.566C215.765 188.323 222.272 176.15 225.798 162.99C229.325 149.829 229.776 136.034 227.118 122.671C224.46 109.308 218.764 96.736 210.469 85.9268C202.175 75.1177 191.506 66.3614 179.286 60.3354C167.067 54.3093 153.625 51.1751 140 51.1751V40.9756Z" fill="#CAB39F"/>
<path d="M218.537 140C218.537 183.375 183.375 218.537 140 218.537C96.6254 218.537 61.4634 183.375 61.4634 140C61.4634 96.6254 96.6254 61.4634 140 61.4634C183.375 61.4634 218.537 96.6254 218.537 140ZM71.6731 140C71.6731 177.736 102.264 208.327 140 208.327C177.736 208.327 208.327 177.736 208.327 140C208.327 102.264 177.736 71.6731 140 71.6731C102.264 71.6731 71.6731 102.264 71.6731 140Z" fill="#FAFAFA"/>
<path d="M140 61.4634C150.314 61.4634 160.526 63.4948 170.055 67.4416C179.583 71.3885 188.241 77.1734 195.534 84.4662C202.826 91.759 208.611 100.417 212.558 109.945C216.505 119.474 218.537 129.686 218.537 140C218.537 150.314 216.505 160.526 212.558 170.055C208.611 179.583 202.826 188.241 195.534 195.534C188.241 202.827 179.583 208.611 170.055 212.558C160.526 216.505 150.313 218.537 140 218.537V208.327C148.973 208.327 157.858 206.559 166.147 203.126C174.437 199.692 181.97 194.659 188.314 188.314C194.659 181.97 199.692 174.437 203.126 166.148C206.559 157.858 208.327 148.973 208.327 140C208.327 131.027 206.559 122.142 203.126 113.852C199.692 105.563 194.659 98.0303 188.314 91.6856C181.97 85.3409 174.437 80.3079 166.147 76.8742C157.858 73.4405 148.973 71.6731 140 71.6731V61.4634Z" fill="#E4CAB7"/>
<path d="M198.049 140C198.049 172.059 172.059 198.049 140 198.049C107.94 198.049 81.9512 172.059 81.9512 140C81.9512 107.94 107.94 81.9512 140 81.9512C172.059 81.9512 198.049 107.94 198.049 140ZM92.1097 140C92.1097 166.449 113.551 187.89 140 187.89C166.449 187.89 187.89 166.449 187.89 140C187.89 113.551 166.449 92.1097 140 92.1097C113.551 92.1097 92.1097 113.551 92.1097 140Z" fill="#FAFAFA"/>
<path d="M140 81.9512C152.78 81.9512 165.202 86.1684 175.34 93.9486C185.479 101.729 192.766 112.637 196.072 124.982C199.379 137.326 198.519 150.417 193.627 162.223C188.734 174.029 180.083 183.89 169.014 190.278L163.936 181.479C173.068 176.209 180.206 168.074 184.242 158.334C188.278 148.594 188.987 137.794 186.26 127.61C183.532 117.426 177.52 108.426 169.156 102.008C160.792 95.5889 150.543 92.1097 140 92.1097V81.9512Z" fill="#F2CCA6"/>
<path d="M177.561 140C177.561 160.744 160.744 177.561 140 177.561C119.256 177.561 102.439 160.744 102.439 140C102.439 119.256 119.256 102.439 140 102.439C160.744 102.439 177.561 119.256 177.561 140ZM112.58 140C112.58 155.143 124.857 167.419 140 167.419C155.143 167.419 167.419 155.143 167.419 140C167.419 124.857 155.143 112.58 140 112.58C124.857 112.58 112.58 124.857 112.58 140Z" fill="#FAFAFA"/>
<path d="M140 102.439C145.762 102.439 151.447 103.765 156.614 106.313C161.782 108.862 166.294 112.566 169.801 117.137C173.309 121.709 175.717 127.026 176.84 132.678C177.964 138.329 177.772 144.164 176.279 149.729L166.484 147.102C167.573 143.039 167.713 138.78 166.893 134.655C166.073 130.529 164.315 126.648 161.755 123.31C159.195 119.973 155.901 117.269 152.129 115.409C148.356 113.548 144.206 112.58 140 112.58V102.439Z" fill="#FFCE9D"/>
</svg>
